<svg xmlns="http://www.w3.org/2000/svg" xmlns:xlink="http://www.w3.org/1999/xlink" version="1.1" x="0px" y="0px" viewBox="0 0 100 125" style="enable-background:new 0 0 100 100;" xml:space="preserve"><g><g><path d="M78.4,100h-2.3V76.1c0-0.4,0-9.3,5.9-17c2.4-3.2,4.1-6.2,5.1-9.4c1.3-3.9,6.8-24-8.8-38.1    c-4.5-4.1-10.2-7-16.6-8.4c-7.7-1.7-22.5-2.8-35.3,9c-3.6,3.3-6.1,7.3-7.3,11.7c-1.1,4.2-1.4,8.8-0.9,13.5    c0.1,0.6,0.2,1.1,0.3,1.7l0,0.1c0.3,1.8,0.7,6.4-2.2,10.8l-5.2,7.5c-0.1,0.3-0.3,1,0,1.5c0.3,0.5,1,0.7,1.5,0.8    c0.3,0,1.4,0.2,2.4,0.6c0.6,0.3,1.1,0.8,1.2,1.5c0.1,0.6,0,1.3-0.5,1.8c-0.3,0.3-0.3,0.5-0.3,0.5c0,0,0.1,0.2,0.5,0.4    c0.5,0.3,0.9,0.7,1,1.3c0.2,0.6,0.1,1.1-0.2,1.6c-0.2,0.4-0.2,0.6-0.2,0.7c0.1,0.1,0.3,0.4,1,0.6c1,0.3,1.7,1.3,1.5,2.4    c-0.3,1.3-0.9,5.6,0.9,7.9c0.8,1,2.1,1.5,3.8,1.4l6.1-0.6c4.9-0.5,9.4,2.9,10.3,7.8c0.6,3.2,0.9,7.2,0.9,12.1h-2.3    c0-4.7-0.3-8.6-0.8-11.7c-0.6-3.6-4-6.2-7.8-5.9l-6.2,0.6c-2.5,0-4.4-0.7-5.6-2.3c-2.3-2.7-1.9-7.1-1.5-9.6c-1.2-0.4-2-1-2.3-1.9    c-0.2-0.5-0.3-1.4,0.3-2.6c-0.9-0.5-1.4-1.2-1.5-1.9c-0.1-0.5-0.1-1.3,0.6-2.2c-0.6-0.2-1.3-0.3-1.5-0.3l-0.1,0    c-1.6-0.3-2.6-1-3.2-2.1c-0.8-1.6-0.1-3.4,0-3.6l0.1-0.2l5.2-7.6c2.5-3.7,2.1-7.6,1.8-9.1l0-0.1c-0.1-0.6-0.2-1.2-0.3-1.9    c-0.6-5-0.3-9.9,0.9-14.4c1.3-4.8,4.1-9.3,8-12.8C38.4-1.8,54-0.7,62.1,1.1C68.9,2.6,75,5.6,79.8,10C96.4,25,90.6,46.4,89.3,50.5    c-1.1,3.4-2.9,6.7-5.5,10c-5.5,7.1-5.4,15.5-5.4,15.6V100z"/></g><g><g><path d="M53.3,64.4c-14.8,0-26.9-12.1-26.9-26.9c0-14.8,12.1-26.9,26.9-26.9s26.9,12.1,26.9,26.9     C80.2,52.4,68.1,64.4,53.3,64.4z M53.3,13c-13.5,0-24.6,11-24.6,24.6c0,13.5,11,24.6,24.6,24.6c13.5,0,24.6-11,24.6-24.6     C77.9,24,66.8,13,53.3,13z"/></g><g><path d="M53.3,41.3c-2,0-3.7-1.7-3.7-3.7c0-2,1.7-3.7,3.7-3.7c2,0,3.7,1.7,3.7,3.7C57,39.6,55.3,41.3,53.3,41.3z      M53.3,36.2c-0.8,0-1.4,0.6-1.4,1.4c0,0.8,0.6,1.4,1.4,1.4c0.8,0,1.4-0.6,1.4-1.4C54.7,36.8,54.1,36.2,53.3,36.2z"/></g><g><path d="M53.3,20.4c-0.6,0-1.2-0.5-1.2-1.2v-3.1c0-0.6,0.5-1.2,1.2-1.2c0.6,0,1.2,0.5,1.2,1.2v3.1     C54.4,19.9,53.9,20.4,53.3,20.4z"/></g><g><path d="M45.6,22.1c-0.4,0-0.9-0.2-1-0.7l-1.3-2.9c-0.3-0.6,0-1.3,0.6-1.5c0.6-0.3,1.3,0,1.5,0.6l1.3,2.9     c0.3,0.6,0,1.3-0.6,1.5C45.9,22.1,45.7,22.1,45.6,22.1z"/></g><g><path d="M39.3,26.9c-0.3,0-0.5-0.1-0.7-0.3l-2.4-2c-0.5-0.4-0.6-1.1-0.1-1.6c0.4-0.5,1.1-0.6,1.6-0.1l2.4,2     c0.5,0.4,0.6,1.1,0.1,1.6C39.9,26.8,39.6,26.9,39.3,26.9z"/></g><g><path d="M35.6,34c-0.1,0-0.2,0-0.3,0l-3-0.8c-0.6-0.2-1-0.8-0.8-1.4c0.2-0.6,0.8-1,1.4-0.8l3,0.8     c0.6,0.2,1,0.8,0.8,1.4C36.6,33.6,36.1,34,35.6,34z"/></g><g><path d="M32.2,42.4c-0.5,0-1-0.4-1.1-1c-0.1-0.6,0.3-1.2,0.9-1.3l3.1-0.5c0.6-0.1,1.2,0.3,1.3,0.9     c0.1,0.6-0.3,1.2-0.9,1.3l-3.1,0.5C32.3,42.4,32.2,42.4,32.2,42.4z"/></g><g><path d="M61,22.1c-0.2,0-0.3,0-0.5-0.1c-0.6-0.3-0.8-1-0.6-1.5l1.3-2.9c0.3-0.6,1-0.8,1.5-0.6     c0.6,0.3,0.8,1,0.6,1.5l-1.3,2.9C61.9,21.9,61.5,22.1,61,22.1z"/></g><g><path d="M67.3,26.9c-0.3,0-0.7-0.1-0.9-0.4c-0.4-0.5-0.3-1.2,0.1-1.6l2.4-2c0.5-0.4,1.2-0.3,1.6,0.1     c0.4,0.5,0.3,1.2-0.1,1.6l-2.4,2C67.8,26.9,67.6,26.9,67.3,26.9z"/></g><g><path d="M71,34c-0.5,0-1-0.3-1.1-0.9c-0.2-0.6,0.2-1.2,0.8-1.4l3-0.8c0.6-0.2,1.2,0.2,1.4,0.8     c0.2,0.6-0.2,1.2-0.8,1.4l-3,0.8C71.2,34,71.1,34,71,34z"/></g><g><path d="M74.4,42.4c-0.1,0-0.1,0-0.2,0l-3.1-0.5c-0.6-0.1-1-0.7-0.9-1.3c0.1-0.6,0.7-1,1.3-0.9l3.1,0.5     c0.6,0.1,1,0.7,0.9,1.3C75.5,42,75,42.4,74.4,42.4z"/></g><g><path d="M40.7,40.9c-0.5,0-1-0.4-1.1-1c-0.1-0.6,0.3-1.2,0.9-1.3l10.1-1.8c0.6-0.1,1.2,0.3,1.3,0.9     c0.1,0.6-0.3,1.2-0.9,1.3l-10.1,1.8C40.8,40.9,40.7,40.9,40.7,40.9z"/></g><g><g><g><rect x="46.7" y="55.6" width="2.3" height="2.5"/></g><g><rect x="52.1" y="55.6" width="2.3" height="2.5"/></g><g><rect x="57.6" y="55.6" width="2.3" height="2.5"/></g></g></g><g><path d="M68.3,59.6c-0.3,0-0.6-0.1-0.8-0.3l-5.7-5.5C61,53,60,52.6,58.9,52.6H47.7c-1.1,0-2.1,0.4-2.9,1.2     L39,59.3c-0.5,0.4-1.2,0.4-1.6,0c-0.4-0.5-0.4-1.2,0-1.6l5.7-5.5c1.2-1.2,2.8-1.8,4.5-1.8h11.2c1.7,0,3.3,0.6,4.5,1.8l5.7,5.5     c0.5,0.4,0.5,1.2,0,1.6C68.9,59.5,68.6,59.6,68.3,59.6z"/></g><g><path d="M40.2,36.9c-0.1,0-0.1,0-0.2,0c-0.6-0.1-1.1-0.7-1-1.3c0.8-5.7,4.9-10.4,10.5-11.9     c0.1,0,8.8-1.9,13.1,5.5c0.3,0.5,0.1,1.3-0.4,1.6c-0.5,0.3-1.3,0.1-1.6-0.4c-3.5-5.9-10.5-4.4-10.6-4.4c-4.6,1.3-8.1,5.2-8.7,10     C41.3,36.5,40.8,36.9,40.2,36.9z"/></g></g></g><text x="0" y="115" fill="#000000" font-size="5px" font-weight="bold" font-family="'Helvetica Neue', Helvetica, Arial-Unicode, Arial, Sans-serif">Created by Andrei Yushchenko</text><text x="0" y="120" fill="#000000" font-size="5px" font-weight="bold" font-family="'Helvetica Neue', Helvetica, Arial-Unicode, Arial, Sans-serif">from the Noun Project</text></svg>