<svg xmlns="http://www.w3.org/2000/svg" xmlns:xlink="http://www.w3.org/1999/xlink" version="1.1" x="0px" y="0px" viewBox="0 0 512 640" enable-background="new 0 0 512 512" xml:space="preserve"><path d="M493.517,254.691h-27.229c22.771-39.672,33.962-76.299,33.962-110.839c0-64.319-55.568-116.646-123.871-116.646  c-30.301,0-53.679,6.962-73.572,21.911c-16.504,12.4-30.938,30.492-46.293,58.152c-15.357-27.66-29.793-45.752-46.297-58.152  c-19.895-14.948-43.273-21.91-73.573-21.91c-68.332,0-123.924,52.327-123.924,116.646c0,34.482,11.157,71.044,33.861,110.642  l-22.87,0.032c-2.209,0.003-3.997,1.796-3.994,4.006c0.003,2.207,1.793,3.994,4,3.994c0.002,0,0.004,0,0.006,0l27.563-0.039  c10.299,16.988,22.682,34.535,37.195,52.718c45.111,56.518,106.13,113.858,165.139,169.312l0.153,0.145  c0.765,0.719,1.747,1.075,2.729,1.075c0.997,0,1.994-0.366,2.77-1.095c59.028-55.474,120.066-112.837,165.191-169.375  c14.472-18.132,26.827-35.631,37.11-52.576h31.941c2.209,0,4-1.791,4-4S495.726,254.691,493.517,254.691z M20.72,143.853  c0-59.908,52.003-108.646,115.924-108.646c60.647-0.001,88.582,30.183,116.339,82.319c0.695,1.305,2.053,2.12,3.531,2.12  c1.479,0,2.836-0.815,3.531-2.121c27.751-52.136,55.684-82.319,116.334-82.319c63.892,0,115.871,48.738,115.871,108.646  c0,34.274-11.587,70.879-35.203,110.839h-86.298c-1.429,0-2.749,0.762-3.464,1.999l-41.708,72.212l-52.896-197.179  c-0.451-1.682-1.938-2.878-3.676-2.959c-1.747-0.072-3.332,0.972-3.938,2.603l-65.424,176.145l-51.686-100.123  c-0.613-1.188-1.78-1.991-3.109-2.14c-1.332-0.151-2.645,0.376-3.506,1.4l-40.197,47.769l-45.336,0.064  C32.27,214.602,20.72,178.066,20.72,143.853z M418.213,310.277c-44.08,55.229-103.724,111.493-161.699,165.98  c-57.997-54.505-117.681-110.793-161.779-166.042c-13.131-16.451-24.464-32.342-34.063-47.741l42.345-0.06  c1.178-0.002,2.296-0.522,3.055-1.425l37.531-44.6l53.085,102.835c0.727,1.407,2.213,2.255,3.796,2.158  c1.581-0.096,2.957-1.115,3.508-2.601l64.211-172.879l52.147,194.392c0.419,1.563,1.737,2.719,3.342,2.93  c0.175,0.023,0.35,0.034,0.522,0.034c1.415,0,2.742-0.752,3.463-1.999l45.38-78.569h79.121  C442.601,278.042,431.299,293.882,418.213,310.277z"/><text x="0" y="527" fill="#000000" font-size="5px" font-weight="bold" font-family="'Helvetica Neue', Helvetica, Arial-Unicode, Arial, Sans-serif">Created by ibrandify</text><text x="0" y="532" fill="#000000" font-size="5px" font-weight="bold" font-family="'Helvetica Neue', Helvetica, Arial-Unicode, Arial, Sans-serif">from the Noun Project</text></svg>