<svg xmlns="http://www.w3.org/2000/svg" xmlns:xlink="http://www.w3.org/1999/xlink" version="1.1" x="0px" y="0px" viewBox="0 0 100 125" style="enable-background:new 0 0 100 100;" xml:space="preserve"><path style="" d="M10.488,48.347c0-0.457,0.37-0.827,0.827-0.827h2.756c6.528-0.608,11.413-4.275,16.584-8.156  c5.595-4.2,11.381-8.542,19.345-8.542s13.75,4.342,19.345,8.542c5.171,3.881,10.056,7.547,16.584,8.156h2.756  c0.457,0,0.827,0.37,0.827,0.827c0,0.457-0.37,0.827-0.827,0.827h-2.794c-0.025,0-0.05-0.001-0.075-0.004  c-7.014-0.64-12.326-4.627-17.463-8.483C62.727,36.464,57.412,32.476,50,32.476s-12.727,3.988-18.353,8.211  c-5.137,3.856-10.45,7.843-17.463,8.483c-0.025,0.002-0.05,0.004-0.075,0.004h-2.794C10.858,49.173,10.488,48.803,10.488,48.347z   M27.984,48.02c-0.168,0.097-0.297,0.187-0.384,0.241c-0.087,0.056-0.132,0.085-0.132,0.085l-0.157,0.102  c-0.08,0.053-0.134,0.142-0.137,0.245c-0.005,0.168,0.126,0.309,0.295,0.315c0,0,0.717,0.023,1.972,0.064  c1.255,0.027,3.048,0.092,5.199,0.122c2.151,0.027,4.661,0.09,7.351,0.101c2.689,0.014,5.558,0.029,8.426,0.043  c2.869-0.015,5.737-0.03,8.426-0.044c2.689-0.013,5.199-0.074,7.351-0.101c2.151-0.03,3.944-0.095,5.199-0.121  c1.255-0.041,1.972-0.064,1.972-0.064c0.096-0.004,0.191-0.053,0.247-0.14c0.091-0.142,0.05-0.33-0.092-0.422l-0.155-0.1  c0,0-0.045-0.029-0.132-0.085c-0.087-0.054-0.216-0.143-0.384-0.24c-0.168-0.101-0.375-0.224-0.619-0.356  c-0.244-0.139-0.524-0.285-0.838-0.443c-0.628-0.322-1.389-0.673-2.263-1.037c-0.874-0.364-1.86-0.728-2.936-1.082  c-1.076-0.34-2.241-0.689-3.474-0.977c-1.233-0.294-2.532-0.551-3.877-0.76c-2.689-0.426-5.558-0.63-8.426-0.641  c-1.434,0.003-2.869,0.052-4.28,0.155c-1.412,0.1-2.801,0.266-4.146,0.472c-1.345,0.208-2.644,0.464-3.877,0.757  c-1.233,0.287-2.398,0.639-3.474,0.978c-0.538,0.188-1.053,0.35-1.544,0.538c-0.49,0.194-0.955,0.357-1.392,0.548  c-0.874,0.367-1.636,0.719-2.263,1.043C28.813,47.533,28.32,47.817,27.984,48.02z M29.519,44.609  c-0.032,0.021-0.046,0.063-0.031,0.1c0.017,0.042,0.065,0.062,0.107,0.044l0.013-0.005c0,0,0.164-0.068,0.471-0.196  c0.307-0.125,0.758-0.307,1.332-0.54c0.573-0.23,1.274-0.494,2.07-0.801c0.399-0.151,0.826-0.307,1.277-0.463  c0.45-0.161,0.919-0.335,1.413-0.502c0.493-0.169,1.009-0.337,1.546-0.501c0.533-0.171,1.083-0.348,1.652-0.513  c0.568-0.167,1.155-0.326,1.756-0.475c0.601-0.149,1.209-0.311,1.834-0.449c1.247-0.284,2.546-0.492,3.858-0.661  c1.325-0.153,2.618-0.248,3.968-0.222c1.319,0.016,2.649,0.15,3.957,0.35c1.307,0.206,2.6,0.459,3.838,0.786  c1.234,0.334,2.438,0.662,3.564,1.036c1.123,0.38,2.192,0.742,3.17,1.11c0.973,0.376,1.873,0.718,2.664,1.042  c0.787,0.331,1.483,0.61,2.048,0.857c0.568,0.247,1.013,0.442,1.317,0.574c0.304,0.135,0.466,0.208,0.466,0.208l0.012,0.005  c0.035,0.016,0.078,0.005,0.101-0.029c0.026-0.037,0.016-0.089-0.021-0.114c0,0-0.584-0.401-1.645-1.036  c-1.062-0.632-2.598-1.509-4.514-2.418c-1.915-0.908-4.205-1.864-6.746-2.63c-2.538-0.763-5.34-1.336-8.184-1.391  c-2.842-0.044-5.667,0.428-8.227,1.11c-2.566,0.683-4.884,1.569-6.824,2.423c-1.942,0.853-3.498,1.694-4.575,2.301  C30.112,44.22,29.519,44.609,29.519,44.609z M33.622,40.727c0.216-0.152,0.55-0.355,0.963-0.619  c0.416-0.261,0.934-0.555,1.525-0.885c0.595-0.326,1.28-0.661,2.027-1.012c0.751-0.346,1.582-0.673,2.46-0.999  c0.881-0.323,1.832-0.588,2.812-0.847c0.983-0.254,2.015-0.431,3.064-0.575c0.263-0.032,0.527-0.064,0.792-0.096  c0.266-0.023,0.532-0.046,0.799-0.069c0.528-0.032,1.033-0.058,1.616-0.056c1.053-0.014,2.115,0.038,3.154,0.193  c1.037,0.161,2.063,0.35,3.043,0.615c0.244,0.069,0.487,0.138,0.727,0.206c0.239,0.074,0.473,0.153,0.71,0.22  c0.47,0.146,0.927,0.299,1.37,0.459c0.442,0.162,0.869,0.331,1.282,0.5c0.415,0.163,0.814,0.329,1.195,0.496  c0.758,0.34,1.452,0.665,2.064,0.965c0.607,0.308,1.141,0.579,1.574,0.813c0.434,0.238,0.775,0.424,1.008,0.552  c0.229,0.134,0.352,0.206,0.352,0.206l0.009,0.005c0.027,0.016,0.062,0.011,0.083-0.014c0.024-0.027,0.021-0.069-0.007-0.093  c0,0-0.43-0.372-1.232-0.953c-0.802-0.581-1.977-1.373-3.466-2.191c-1.488-0.815-3.293-1.659-5.325-2.292  c-2.027-0.632-4.29-1.045-6.568-1.003c-1.129,0.018-2.27,0.114-3.371,0.285c-1.104,0.173-2.177,0.418-3.197,0.719  c-2.041,0.601-3.857,1.429-5.335,2.267c-1.48,0.838-2.624,1.68-3.392,2.306c-0.768,0.627-1.163,1.04-1.163,1.04  c-0.022,0.023-0.025,0.059-0.005,0.086c0.022,0.029,0.063,0.034,0.092,0.012l0.008-0.006C33.292,40.962,33.403,40.877,33.622,40.727  z M88.686,50.827h-2.794c-0.025,0-0.05,0.001-0.075,0.004c-7.014,0.64-12.326,4.627-17.463,8.483  C62.727,63.536,57.412,67.524,50,67.524s-12.727-3.988-18.353-8.211c-5.137-3.856-10.45-7.843-17.463-8.483  c-0.025-0.002-0.05-0.004-0.075-0.004h-2.794c-0.457,0-0.827,0.37-0.827,0.827c0,0.457,0.37,0.827,0.827,0.827h2.756  c6.528,0.608,11.413,4.274,16.584,8.156c5.595,4.2,11.381,8.542,19.345,8.542s13.75-4.342,19.345-8.542  c5.171-3.881,10.056-7.547,16.584-8.156h2.756c0.457,0,0.827-0.37,0.827-0.827C89.512,51.197,89.142,50.827,88.686,50.827z   M73.234,52.069c0.087-0.056,0.132-0.085,0.132-0.085l0.157-0.102c0.08-0.053,0.134-0.142,0.137-0.245  c0.005-0.168-0.126-0.309-0.295-0.315c0,0-0.717-0.023-1.972-0.064c-1.255-0.027-3.048-0.092-5.199-0.122  c-2.151-0.027-4.661-0.09-7.351-0.101c-2.689-0.014-5.558-0.029-8.426-0.043c-2.869,0.015-5.737,0.03-8.426,0.044  c-2.689,0.013-5.199,0.074-7.351,0.101c-2.151,0.03-3.944,0.095-5.199,0.121c-1.255,0.041-1.972,0.064-1.972,0.064  c-0.096,0.004-0.191,0.053-0.247,0.14c-0.091,0.142-0.05,0.331,0.091,0.422l0.155,0.1c0,0,0.045,0.029,0.132,0.085  c0.087,0.054,0.216,0.143,0.384,0.24c0.168,0.101,0.375,0.224,0.619,0.356c0.244,0.139,0.524,0.285,0.838,0.443  c0.628,0.322,1.389,0.673,2.263,1.038c0.874,0.364,1.86,0.728,2.936,1.082c1.076,0.34,2.241,0.689,3.474,0.977  c1.233,0.294,2.532,0.551,3.877,0.76c2.689,0.426,5.558,0.63,8.426,0.641c1.434-0.003,2.869-0.052,4.28-0.155  c1.412-0.1,2.801-0.266,4.146-0.472c1.345-0.208,2.644-0.464,3.877-0.757c1.233-0.287,2.398-0.639,3.474-0.978  c0.538-0.188,1.053-0.35,1.544-0.538c0.49-0.194,0.955-0.357,1.392-0.548c0.874-0.367,1.636-0.719,2.263-1.043  c0.628-0.316,1.121-0.6,1.457-0.803C73.018,52.213,73.147,52.124,73.234,52.069z M71.902,54.75c0.032-0.022,0.045-0.064,0.029-0.101  c-0.018-0.041-0.067-0.06-0.108-0.042l-0.012,0.005c0,0-0.162,0.072-0.466,0.207c-0.304,0.133-0.75,0.327-1.317,0.574  c-0.565,0.247-1.261,0.526-2.048,0.857c-0.791,0.324-1.691,0.666-2.664,1.042c-0.978,0.368-2.047,0.73-3.17,1.11  c-1.126,0.374-2.33,0.702-3.564,1.036c-1.238,0.327-2.53,0.579-3.838,0.786c-1.308,0.2-2.638,0.333-3.957,0.35  c-1.351,0.026-2.644-0.069-3.968-0.222c-1.312-0.169-2.611-0.377-3.858-0.661c-0.625-0.138-1.233-0.3-1.834-0.449  c-0.601-0.149-1.187-0.308-1.756-0.475c-0.569-0.165-1.119-0.342-1.652-0.513c-0.536-0.164-1.052-0.332-1.546-0.501  c-0.495-0.167-0.964-0.341-1.413-0.502c-0.451-0.157-0.878-0.312-1.277-0.463c-0.796-0.308-1.497-0.571-2.07-0.801  c-0.574-0.233-1.025-0.415-1.332-0.54c-0.307-0.128-0.471-0.196-0.471-0.196l-0.013-0.005c-0.036-0.015-0.078-0.003-0.1,0.031  c-0.025,0.038-0.014,0.089,0.023,0.114c0,0,0.592,0.39,1.668,1c1.076,0.607,2.633,1.448,4.575,2.301  c1.94,0.854,4.258,1.74,6.824,2.423c2.56,0.682,5.385,1.154,8.227,1.11c2.844-0.055,5.646-0.628,8.184-1.391  c2.542-0.766,4.831-1.723,6.746-2.63c1.916-0.908,3.452-1.786,4.514-2.418C71.317,55.151,71.902,54.75,71.902,54.75z M65.807,59.414  c-0.233,0.127-0.574,0.314-1.008,0.552c-0.434,0.234-0.967,0.505-1.574,0.813c-0.612,0.3-1.306,0.625-2.064,0.965  c-0.38,0.167-0.779,0.333-1.195,0.496c-0.412,0.169-0.839,0.338-1.282,0.5c-0.443,0.161-0.901,0.313-1.37,0.459  c-0.237,0.067-0.471,0.146-0.71,0.22c-0.24,0.068-0.482,0.136-0.727,0.206c-0.98,0.265-2.006,0.454-3.043,0.615  c-1.039,0.154-2.101,0.207-3.154,0.192c-0.583,0.002-1.088-0.024-1.616-0.056c-0.267-0.023-0.533-0.046-0.799-0.069  c-0.265-0.032-0.529-0.064-0.792-0.096c-1.049-0.144-2.081-0.321-3.064-0.575c-0.98-0.259-1.931-0.524-2.812-0.847  c-0.879-0.326-1.709-0.653-2.46-0.999c-0.747-0.351-1.433-0.687-2.027-1.012c-0.591-0.33-1.11-0.624-1.525-0.885  c-0.413-0.264-0.746-0.467-0.963-0.619c-0.219-0.15-0.33-0.235-0.33-0.235l-0.008-0.006c-0.025-0.019-0.062-0.018-0.086,0.005  c-0.026,0.025-0.027,0.067-0.002,0.093c0,0,0.395,0.412,1.163,1.04c0.767,0.626,1.912,1.469,3.392,2.306  c1.477,0.838,3.294,1.666,5.335,2.267c1.019,0.301,2.093,0.547,3.197,0.719c1.101,0.172,2.242,0.267,3.371,0.286  c2.278,0.042,4.54-0.371,6.568-1.003c2.032-0.633,3.837-1.476,5.325-2.292c1.489-0.817,2.664-1.61,3.466-2.191  c0.802-0.581,1.232-0.953,1.232-0.953c0.023-0.02,0.03-0.055,0.014-0.083c-0.018-0.031-0.059-0.042-0.09-0.023l-0.009,0.005  C66.159,59.208,66.037,59.279,65.807,59.414z" fill="#231F20"/><text x="0" y="115" fill="#000000" font-size="5px" font-weight="bold" font-family="'Helvetica Neue', Helvetica, Arial-Unicode, Arial, Sans-serif">Created by PJ Witsakorn</text><text x="0" y="120" fill="#000000" font-size="5px" font-weight="bold" font-family="'Helvetica Neue', Helvetica, Arial-Unicode, Arial, Sans-serif">from the Noun Project</text></svg>